<svg width="53" height="12" viewBox="0 0 53 12" fill="none" xmlns="http://www.w3.org/2000/svg">
<path d="M6.5415 6.70055H1.56409V12H0V0H7.34799V1.3022H1.56409V5.40659H6.5415V6.70055Z" fill="#6FE9A6"/>
<path d="M14.3864 8.86813H9.41715L8.30111 12H6.68813L11.2175 0H12.5861L17.1236 12H15.5188L14.3864 8.86813ZM9.88964 7.56593H13.9221L11.9018 1.9533L9.88964 7.56593Z" fill="#6FE9A6"/>
<path d="M23.0704 7.1456H20.2844V12H18.7121V0H22.6386C23.9746 0 25.0011 0.307692 25.718 0.923077C26.4403 1.53846 26.8014 2.43407 26.8014 3.60989C26.8014 4.35714 26.6005 5.00824 26.1986 5.56319C25.8021 6.11813 25.2482 6.53297 24.5367 6.80769L27.3228 11.9011V12H25.6446L23.0704 7.1456ZM20.2844 5.85165H22.6875C23.4641 5.85165 24.0805 5.64835 24.5367 5.24176C24.9984 4.83517 25.2292 4.29121 25.2292 3.60989C25.2292 2.86813 25.0092 2.29945 24.5693 1.90385C24.1348 1.50824 23.5049 1.30769 22.6794 1.3022H20.2844V5.85165Z" fill="#6FE9A6"/>
<path d="M31.0212 0L34.8989 9.79121L38.7765 0H40.805V12H39.2409V7.32692L39.3875 2.28297L35.4935 12H34.296L30.4102 2.30769L30.565 7.32692V12H29.0009V0H31.0212Z" fill="#6FE9A6"/>
<path d="M50.2628 8.86813H45.2936L44.1775 12H42.5646L47.0939 0H48.4625L53 12H51.3952L50.2628 8.86813ZM45.7661 7.56593H49.7985L47.7782 1.9533L45.7661 7.56593Z" fill="#6FE9A6"/>
</svg>
