<svg width="81" height="97" viewBox="0 0 81 97" fill="none" xmlns="http://www.w3.org/2000/svg">
<path d="M2 7.79812V51C10.4714 41.9065 15.9341 39.4749 26.4017 34.628V7.79812C17.537 0.362618 12.2487 -0.222496 2 7.79812Z" fill="#00BF9D"/>
<path d="M26.4017 34.628V7.79812C17.537 0.362618 12.2487 -0.222496 2 7.79812V51C10.4714 41.9065 15.9341 39.4749 26.4017 34.628ZM26.4017 34.628C44.5508 28.1086 73.5146 24.2898 74 14.6887" stroke="#6FE9A6" stroke-width="4" stroke-linecap="round"/>
<path d="M26.5551 89.2063V46.0373C15.4771 50.7508 10.3433 54.0425 2 63.5464V89.2063C10.9204 96.6361 16.2419 97.2208 26.5551 89.2063Z" fill="#6FE9A6"/>
<path d="M26.5551 46.0373V89.2063C16.2419 97.2208 10.9204 96.6361 2 89.2063V63.5464C10.3433 54.0426 15.4772 50.7508 26.5551 46.0373ZM26.5551 46.0373C43.3593 39.0206 75.8191 33.7563 79 24" stroke="#00BF9D" stroke-width="4" stroke-linecap="round" stroke-linejoin="round"/>
</svg>
