<svg width="54" height="17" viewBox="0 0 54 17" fill="none" xmlns="http://www.w3.org/2000/svg">
<path d="M12.66 17H10.4764V9.14217H2.17222V17H0V0H2.17222V7.30907H10.4764V0H12.66V17Z" fill="#00BF9D"/>
<path d="M25.829 9.14217H18.6901V15.1669H26.983V17H16.5179V0H26.8699V1.84478H18.6901V7.30907H25.829V9.14217Z" fill="#00BF9D"/>
<path d="M31.8705 15.1669H39.6769V17H29.687V0H31.8705V15.1669Z" fill="#00BF9D"/>
<path d="M44.3268 10.3448V17H42.1546V0H48.23C50.0327 0 51.4431 0.474817 52.4613 1.42445C53.4871 2.37408 54 3.63118 54 5.19574C54 6.84593 53.4984 8.11859 52.4953 9.01374C51.4997 9.9011 50.0704 10.3448 48.2074 10.3448H44.3268ZM44.3268 8.51168H48.23C49.3916 8.51168 50.2816 8.23146 50.9001 7.67102C51.5185 7.10279 51.8278 6.28549 51.8278 5.21909C51.8278 4.20719 51.5185 3.39767 50.9001 2.79052C50.2816 2.18338 49.4331 1.86813 48.3545 1.84478H44.3268V8.51168Z" fill="#00BF9D"/>
</svg>
